<?xml version="1.0" encoding="UTF-8"?>
<svg version="1.1" xmlns="http://www.w3.org/2000/svg" width="512" height="512">
<path d="M0 0 C0.85183483 -0.0072672 1.70366966 -0.01453441 2.58131766 -0.02202183 C5.44942188 -0.04033911 8.31620012 -0.02288532 11.18429565 -0.00571251 C13.25570423 -0.01147103 15.3271077 -0.01941033 17.39850044 -0.02934873 C23.10127895 -0.05028209 28.80364079 -0.03987726 34.50642109 -0.02441764 C40.65239137 -0.01313464 46.7982885 -0.03055168 52.94424438 -0.04431725 C64.29180969 -0.06529882 75.63920457 -0.06343387 86.98676568 -0.0497599 C97.46914755 -0.03719025 107.95148055 -0.03389481 118.43386841 -0.03987312 C119.47618355 -0.04044601 119.47618355 -0.04044601 120.53955556 -0.04103047 C123.36017036 -0.04258712 126.18078514 -0.04417912 129.00139988 -0.04582929 C155.46982959 -0.06112996 181.93817437 -0.04724803 208.40659097 -0.02034481 C231.93068256 0.00338388 255.45463884 0.00126077 278.97872925 -0.02264977 C305.39823166 -0.04941341 331.817659 -0.06004492 358.23717308 -0.04458845 C361.05269748 -0.04298482 363.8682219 -0.04142062 366.68374634 -0.03987312 C367.72365422 -0.03928004 367.72365422 -0.03928004 368.78457035 -0.03867498 C379.26127751 -0.03298367 389.73793047 -0.03964632 400.21463013 -0.05227089 C412.125176 -0.06655156 424.03556201 -0.06254412 435.94610167 -0.03586717 C442.02669824 -0.02269827 448.10701971 -0.01762909 454.18761444 -0.03411293 C459.74900746 -0.0489616 465.30986917 -0.04090813 470.87121367 -0.01422517 C472.88795816 -0.00861862 474.90474712 -0.01152896 476.92146325 -0.02360411 C479.65416015 -0.0387169 482.38501551 -0.02331245 485.11761475 0 C485.90843185 -0.01170583 486.69924896 -0.02341166 487.51403022 -0.03547221 C491.36250899 0.03056158 493.38204892 0.50375943 496.54723114 2.75010353 C498.98735675 6.24257418 499.18425225 8.08838215 499.18521976 12.32404613 C499.19218737 12.98708271 499.19915498 13.65011928 499.20633373 14.33324787 C499.22360534 16.55924275 499.20520062 18.78350322 499.18699646 21.00946999 C499.19204068 22.61961468 499.19926854 24.22975377 499.2084946 25.83987993 C499.22746158 30.26766261 499.2151583 34.69489463 499.19777167 39.12266362 C499.18442443 43.8964146 499.19982519 48.6700836 499.21159363 53.44382668 C499.22999394 62.79655475 499.22144214 72.14907421 499.2035054 81.50179584 C499.18949314 89.10081907 499.18558364 96.69978558 499.18894768 104.2988205 C499.18966384 105.91965831 499.18966384 105.91965831 499.19039447 107.57324032 C499.19142078 109.76819974 499.19247613 111.96315915 499.19356024 114.15811854 C499.20213203 133.57633849 499.18543627 152.99445756 499.1557312 172.41265297 C499.12688867 191.26718826 499.11981153 210.12157823 499.13522339 228.97612953 C499.15197282 249.49522573 499.15603292 270.0142529 499.13851303 290.53335088 C499.13666859 292.72003614 499.13483386 294.9067214 499.13300896 297.09340668 C499.13209687 298.16937189 499.13118478 299.24533711 499.13024505 300.35390734 C499.12463213 307.94685066 499.12795382 315.53976036 499.13455391 323.13270187 C499.142274 332.38152021 499.13558226 341.63019534 499.11037887 350.87898476 C499.09785347 355.60048287 499.09177402 360.32175768 499.10292053 365.04326439 C499.11292325 369.36171141 499.10458867 373.67971205 499.08133935 377.99810451 C499.0761579 379.56395718 499.07778154 381.1298495 499.086734 382.69568516 C499.09786134 384.81773279 499.08457316 386.93825309 499.06496525 389.06020641 C499.06377377 390.2407046 499.06258228 391.42120278 499.0613547 392.63747364 C498.45470143 396.24896246 497.3939776 397.3918874 494.55880737 399.6292057 C491.39095495 401.21313191 487.98112579 400.77144754 484.5023756 400.76622009 C483.23234822 400.77019783 483.23234822 400.77019783 481.93666372 400.77425593 C479.06844703 400.7819821 476.20027293 400.78250936 473.33204651 400.78310585 C471.26735803 400.78711828 469.20267035 400.79155613 467.13798362 400.79638541 C461.43996748 400.80838105 455.74195982 400.81400625 450.04393351 400.81856656 C443.90815905 400.82451126 437.77239479 400.83612382 431.6366272 400.84685707 C417.50859216 400.87024502 403.38055673 400.88479145 389.25250872 400.89708649 C384.36595043 400.90133965 379.47939253 400.90590533 374.59283471 400.9106698 C348.62413985 400.93592698 322.65544437 400.95798042 296.68673992 400.97039795 C290.66859116 400.97331939 284.65044242 400.97628689 278.6322937 400.97930336 C277.88459708 400.97967427 277.13690046 400.98004518 276.36654636 400.98042733 C252.11541931 400.99258732 227.86436476 401.02353835 203.61327177 401.06522488 C178.69265165 401.10798435 153.77206982 401.13463532 128.85141201 401.13987266 C125.33377529 401.14061315 121.81613862 401.14152384 118.29850197 401.14253044 C117.60617369 401.14272106 116.91384542 401.14291167 116.2005375 401.14310806 C105.04545566 401.14662564 93.89046446 401.16694185 82.73541594 401.19332708 C71.52899558 401.21943474 60.3226786 401.22679953 49.11622246 401.21622579 C43.04170469 401.21102138 36.96747588 401.2140414 30.89299965 401.23869133 C25.33706786 401.26104968 19.78163485 401.26054884 14.22569511 401.24148746 C12.21086763 401.23866854 10.19600729 401.24438981 8.18123301 401.2593004 C5.45112755 401.27827685 2.72282445 401.26670628 -0.00723743 401.24723816 C-0.79730774 401.26008738 -1.58737804 401.2729366 -2.40138987 401.28617519 C-6.24964276 401.2254963 -8.26391437 400.75501621 -11.42898947 398.50883162 C-13.8687966 395.01726974 -14.06748543 393.17185615 -14.07039833 388.93715858 C-14.07766553 388.27442161 -14.08493274 387.61168463 -14.09242016 386.92886472 C-14.11069576 384.70388983 -14.09330561 382.48063337 -14.07611084 380.25567055 C-14.08187109 378.64623762 -14.08981156 377.03681125 -14.09974706 375.42739868 C-14.12065711 371.00155622 -14.11028649 366.57625147 -14.09481597 362.15040684 C-14.08352333 357.37867427 -14.10095479 352.60703548 -14.11471558 347.83532143 C-14.13697485 338.48627587 -14.13213482 329.13743077 -14.11765237 319.78837729 C-14.1063707 312.19174457 -14.10482458 304.59516812 -14.11027145 296.99852943 C-14.11103762 295.91825961 -14.11180378 294.8379898 -14.11259317 293.72498453 C-14.11419176 291.53059084 -14.11581282 289.33619716 -14.11745612 287.1418035 C-14.13172151 266.55411577 -14.11530851 245.96653926 -14.08845429 225.37886977 C-14.06611482 207.70509791 -14.06999472 190.03149023 -14.0930481 172.35772133 C-14.11979215 151.84483638 -14.13034814 131.33204897 -14.11498678 110.81914902 C-14.11339399 108.63272668 -14.11182214 106.44630434 -14.11027145 104.25988197 C-14.10950008 103.18405747 -14.1087287 102.10823296 -14.10793395 100.99980772 C-14.10361276 93.4103279 -14.11091251 85.82090984 -14.12266922 78.23143959 C-14.13667726 68.98519018 -14.13293 59.73915305 -14.1062655 50.49292803 C-14.09310447 45.77328396 -14.08801377 41.05399412 -14.10451126 36.33435249 C-14.11937667 32.0163883 -14.1112795 27.6991077 -14.0846235 23.3812058 C-14.07902398 21.81668057 -14.08191189 20.25209796 -14.09400244 18.68760943 C-14.10915421 16.56466329 -14.09367601 14.44407476 -14.07039833 12.32125282 C-14.06958657 11.14113436 -14.06877481 9.96101589 -14.06793845 8.74513626 C-12.49426309 0.92144926 -7.07542153 -0.10473178 0 0 Z " fill="#FEE3AE" transform="translate(13.441192626953125,55.37079429626465)"/>
<path d="M0 0 C0.85183483 -0.0072672 1.70366966 -0.01453441 2.58131766 -0.02202183 C5.44942188 -0.04033911 8.31620012 -0.02288532 11.18429565 -0.00571251 C13.25570423 -0.01147103 15.3271077 -0.01941033 17.39850044 -0.02934873 C23.10127895 -0.05028209 28.80364079 -0.03987726 34.50642109 -0.02441764 C40.65239137 -0.01313464 46.7982885 -0.03055168 52.94424438 -0.04431725 C64.29180969 -0.06529882 75.63920457 -0.06343387 86.98676568 -0.0497599 C97.46914755 -0.03719025 107.95148055 -0.03389481 118.43386841 -0.03987312 C119.47618355 -0.04044601 119.47618355 -0.04044601 120.53955556 -0.04103047 C123.36017036 -0.04258712 126.18078514 -0.04417912 129.00139988 -0.04582929 C155.46982959 -0.06112996 181.93817437 -0.04724803 208.40659097 -0.02034481 C231.93068256 0.00338388 255.45463884 0.00126077 278.97872925 -0.02264977 C305.39823166 -0.04941341 331.817659 -0.06004492 358.23717308 -0.04458845 C361.05269748 -0.04298482 363.8682219 -0.04142062 366.68374634 -0.03987312 C367.72365422 -0.03928004 367.72365422 -0.03928004 368.78457035 -0.03867498 C379.26127751 -0.03298367 389.73793047 -0.03964632 400.21463013 -0.05227089 C412.125176 -0.06655156 424.03556201 -0.06254412 435.94610167 -0.03586717 C442.02669824 -0.02269827 448.10701971 -0.01762909 454.18761444 -0.03411293 C459.74900746 -0.0489616 465.30986917 -0.04090813 470.87121367 -0.01422517 C472.88795816 -0.00861862 474.90474712 -0.01152896 476.92146325 -0.02360411 C479.65416015 -0.0387169 482.38501551 -0.02331245 485.11761475 0 C485.90843185 -0.01170583 486.69924896 -0.02341166 487.51403022 -0.03547221 C491.36250899 0.03056158 493.38204892 0.50375943 496.54723114 2.75010353 C498.98735675 6.24257418 499.18425225 8.08838215 499.18521976 12.32404613 C499.19218737 12.98708271 499.19915498 13.65011928 499.20633373 14.33324787 C499.22360534 16.55924275 499.20520062 18.78350322 499.18699646 21.00946999 C499.19204068 22.61961468 499.19926854 24.22975377 499.2084946 25.83987993 C499.22746158 30.26766261 499.2151583 34.69489463 499.19777167 39.12266362 C499.18442443 43.8964146 499.19982519 48.6700836 499.21159363 53.44382668 C499.22999394 62.79655475 499.22144214 72.14907421 499.2035054 81.50179584 C499.18949314 89.10081907 499.18558364 96.69978558 499.18894768 104.2988205 C499.18966384 105.91965831 499.18966384 105.91965831 499.19039447 107.57324032 C499.19142078 109.76819974 499.19247613 111.96315915 499.19356024 114.15811854 C499.20213203 133.57633849 499.18543627 152.99445756 499.1557312 172.41265297 C499.12688867 191.26718826 499.11981153 210.12157823 499.13522339 228.97612953 C499.15197282 249.49522573 499.15603292 270.0142529 499.13851303 290.53335088 C499.13666859 292.72003614 499.13483386 294.9067214 499.13300896 297.09340668 C499.13209687 298.16937189 499.13118478 299.24533711 499.13024505 300.35390734 C499.12463213 307.94685066 499.12795382 315.53976036 499.13455391 323.13270187 C499.142274 332.38152021 499.13558226 341.63019534 499.11037887 350.87898476 C499.09785347 355.60048287 499.09177402 360.32175768 499.10292053 365.04326439 C499.11292325 369.36171141 499.10458867 373.67971205 499.08133935 377.99810451 C499.0761579 379.56395718 499.07778154 381.1298495 499.086734 382.69568516 C499.09786134 384.81773279 499.08457316 386.93825309 499.06496525 389.06020641 C499.06377377 390.2407046 499.06258228 391.42120278 499.0613547 392.63747364 C498.45470143 396.24896246 497.3939776 397.3918874 494.55880737 399.6292057 C491.39095495 401.21313191 487.98112579 400.77144754 484.5023756 400.76622009 C483.23234822 400.77019783 483.23234822 400.77019783 481.93666372 400.77425593 C479.06844703 400.7819821 476.20027293 400.78250936 473.33204651 400.78310585 C471.26735803 400.78711828 469.20267035 400.79155613 467.13798362 400.79638541 C461.43996748 400.80838105 455.74195982 400.81400625 450.04393351 400.81856656 C443.90815905 400.82451126 437.77239479 400.83612382 431.6366272 400.84685707 C417.50859216 400.87024502 403.38055673 400.88479145 389.25250872 400.89708649 C384.36595043 400.90133965 379.47939253 400.90590533 374.59283471 400.9106698 C348.62413985 400.93592698 322.65544437 400.95798042 296.68673992 400.97039795 C290.66859116 400.97331939 284.65044242 400.97628689 278.6322937 400.97930336 C277.88459708 400.97967427 277.13690046 400.98004518 276.36654636 400.98042733 C252.11541931 400.99258732 227.86436476 401.02353835 203.61327177 401.06522488 C178.69265165 401.10798435 153.77206982 401.13463532 128.85141201 401.13987266 C125.33377529 401.14061315 121.81613862 401.14152384 118.29850197 401.14253044 C117.60617369 401.14272106 116.91384542 401.14291167 116.2005375 401.14310806 C105.04545566 401.14662564 93.89046446 401.16694185 82.73541594 401.19332708 C71.52899558 401.21943474 60.3226786 401.22679953 49.11622246 401.21622579 C43.04170469 401.21102138 36.96747588 401.2140414 30.89299965 401.23869133 C25.33706786 401.26104968 19.78163485 401.26054884 14.22569511 401.24148746 C12.21086763 401.23866854 10.19600729 401.24438981 8.18123301 401.2593004 C5.45112755 401.27827685 2.72282445 401.26670628 -0.00723743 401.24723816 C-0.79730774 401.26008738 -1.58737804 401.2729366 -2.40138987 401.28617519 C-6.24964276 401.2254963 -8.26391437 400.75501621 -11.42898947 398.50883162 C-13.8687966 395.01726974 -14.06748543 393.17185615 -14.07039833 388.93715858 C-14.07766553 388.27442161 -14.08493274 387.61168463 -14.09242016 386.92886472 C-14.11069576 384.70388983 -14.09330561 382.48063337 -14.07611084 380.25567055 C-14.08187109 378.64623762 -14.08981156 377.03681125 -14.09974706 375.42739868 C-14.12065711 371.00155622 -14.11028649 366.57625147 -14.09481597 362.15040684 C-14.08352333 357.37867427 -14.10095479 352.60703548 -14.11471558 347.83532143 C-14.13697485 338.48627587 -14.13213482 329.13743077 -14.11765237 319.78837729 C-14.1063707 312.19174457 -14.10482458 304.59516812 -14.11027145 296.99852943 C-14.11103762 295.91825961 -14.11180378 294.8379898 -14.11259317 293.72498453 C-14.11419176 291.53059084 -14.11581282 289.33619716 -14.11745612 287.1418035 C-14.13172151 266.55411577 -14.11530851 245.96653926 -14.08845429 225.37886977 C-14.06611482 207.70509791 -14.06999472 190.03149023 -14.0930481 172.35772133 C-14.11979215 151.84483638 -14.13034814 131.33204897 -14.11498678 110.81914902 C-14.11339399 108.63272668 -14.11182214 106.44630434 -14.11027145 104.25988197 C-14.10950008 103.18405747 -14.1087287 102.10823296 -14.10793395 100.99980772 C-14.10361276 93.4103279 -14.11091251 85.82090984 -14.12266922 78.23143959 C-14.13667726 68.98519018 -14.13293 59.73915305 -14.1062655 50.49292803 C-14.09310447 45.77328396 -14.08801377 41.05399412 -14.10451126 36.33435249 C-14.11937667 32.0163883 -14.1112795 27.6991077 -14.0846235 23.3812058 C-14.07902398 21.81668057 -14.08191189 20.25209796 -14.09400244 18.68760943 C-14.10915421 16.56466329 -14.09367601 14.44407476 -14.07039833 12.32125282 C-14.06958657 11.14113436 -14.06877481 9.96101589 -14.06793845 8.74513626 C-12.49426309 0.92144926 -7.07542153 -0.10473178 0 0 Z M3.55880737 85.6292057 C3.55880737 183.6392057 3.55880737 281.6492057 3.55880737 382.6292057 C11.14880737 382.6292057 18.73880737 382.6292057 26.55880737 382.6292057 C26.57298706 379.36658852 26.58716675 376.10397133 26.60177612 372.74248695 C26.63240044 369.57840089 26.67148835 366.41452458 26.71139526 363.25054359 C26.73457475 361.05367908 26.74897085 358.85670345 26.75436401 356.65972328 C26.76365364 353.49910679 26.80464615 350.34023794 26.85177612 347.17998695 C26.84784348 346.19959953 26.84391083 345.21921211 26.83985901 344.20911598 C26.93212731 339.88494723 27.1778412 337.27219908 29.41134644 333.50249672 C34.10388088 330.70961611 38.26148094 330.98811257 43.62521362 331.1057682 C45.23178078 331.1128228 45.23178078 331.1128228 46.87080383 331.12001991 C50.28829576 331.1413449 53.70423097 331.19794764 57.12130737 331.2542057 C59.4253292 331.27071503 61.72936761 331.28506252 64.03341675 331.29717445 C68.25114956 331.33111048 72.46870758 331.36610467 76.68600464 331.43633461 C77.95577904 331.45562523 77.95577904 331.45562523 79.25120544 331.47530556 C81.52632953 331.62703967 83.42688305 331.81007037 85.55880737 332.6292057 C86.50534878 335.46882991 86.70874962 337.333271 86.76412964 340.284235 C86.79404747 341.69535812 86.79404747 341.69535812 86.8245697 343.13498878 C86.8412822 344.14757256 86.85799469 345.16015633 86.87521362 346.20342445 C86.89599472 347.24239372 86.91677582 348.28136299 86.93818665 349.35181618 C87.00361393 352.67337823 87.06253558 355.99501986 87.12130737 359.3167057 C87.16449907 361.567365 87.20811357 363.81801623 87.25216675 366.06865883 C87.36008464 371.58876071 87.45920917 377.1089223 87.55880737 382.6292057 C94.48880737 382.6292057 101.41880737 382.6292057 108.55880737 382.6292057 C108.56689423 381.05955055 108.57498108 379.4898954 108.58331299 377.87267494 C108.6607106 363.09883332 108.74831557 348.32509242 108.84633446 333.55137444 C108.89646731 325.95559391 108.94291014 318.35982421 108.98068237 310.76397133 C109.01361201 304.14382609 109.05344857 297.52376472 109.10159743 290.90371203 C109.12685282 287.39808242 109.14863689 283.89250838 109.16215134 280.38681221 C109.17736324 276.47434496 109.20799462 272.56208157 109.23995972 268.64971352 C109.2421199 267.48590157 109.24428009 266.32208961 109.24650574 265.12301064 C109.25766922 264.05732857 109.2688327 262.9916465 109.28033447 261.89367104 C109.28863061 260.5054508 109.28863061 260.5054508 109.29709435 259.08918571 C109.57589325 256.46860641 110.16395425 254.85166128 111.55880737 252.6292057 C114.45043113 250.68322387 116.80707864 250.37409622 120.24801636 250.3545475 C121.17255112 250.34501549 122.09708588 250.33548347 123.04963684 250.32566261 C124.53724266 250.32702972 124.53724266 250.32702972 126.05490112 250.32842445 C127.08059708 250.32413933 128.10629303 250.3198542 129.16307068 250.31543922 C131.33086408 250.30969988 133.49867673 250.30919275 135.66647339 250.31353188 C138.98052881 250.31669066 142.2936905 250.29323124 145.6076355 250.26787758 C147.71505625 250.26560442 149.8224794 250.26490117 151.92990112 250.26592445 C152.91961411 250.25671471 153.90932709 250.24750496 154.92903137 250.23801613 C163.61041531 250.29630575 163.61041531 250.29630575 167.55880737 253.6292057 C168.81542184 256.14243465 168.69760126 257.87734843 168.71702576 260.69112587 C168.73170898 262.29814621 168.73170898 262.29814621 168.74668884 263.93763161 C168.75244431 265.11798485 168.75819977 266.29833809 168.76412964 267.51445961 C168.77402924 268.75345512 168.78392883 269.99245064 168.79412842 271.26899147 C168.82035177 274.67165199 168.84219909 278.07428859 168.8621304 281.47698832 C168.88397366 285.03112044 168.91137046 288.58520957 168.93818665 292.13930702 C168.98813602 298.87179229 169.0330665 305.6043014 169.07620901 312.33683336 C169.12556222 320.00060748 169.18048744 327.66433846 169.2358886 335.32807088 C169.34974311 351.09507622 169.45637692 366.86212178 169.55880737 382.6292057 C176.48880737 382.6292057 183.41880737 382.6292057 190.55880737 382.6292057 C190.58386353 380.13059975 190.60891968 377.63199379 190.63473511 375.0576725 C190.71813187 366.8114238 190.80682771 358.56523827 190.89814663 350.31907368 C190.95336131 345.31838824 191.00677906 340.31769694 191.05612183 335.31694984 C191.10378674 330.49289558 191.15613043 325.6689129 191.21174812 320.844944 C191.23216201 319.00253324 191.2508767 317.16010285 191.26788139 315.31765747 C191.29194671 312.7413402 191.32199846 310.16515825 191.35348511 307.5889225 C191.35924057 306.82359703 191.36499603 306.05827156 191.3709259 305.26975441 C191.41467541 302.13005245 191.55857119 299.62991426 192.55880737 296.6292057 C195.44392074 295.52103861 198.27423215 295.49332992 201.33981323 295.46807289 C202.28436874 295.45846535 203.22892426 295.4488578 204.20210266 295.43895912 C205.72251915 295.4325843 205.72251915 295.4325843 207.27365112 295.4260807 C208.32154312 295.42038063 209.36943512 295.41468056 210.44908142 295.40880775 C212.66395053 295.39936853 214.87883362 295.39282806 217.09371948 295.38897133 C220.4801171 295.37925217 223.86591116 295.34821262 227.25216675 295.3167057 C229.40515794 295.31017666 231.55815347 295.3049258 233.71115112 295.3010807 C235.22853127 295.2825605 235.22853127 295.2825605 236.77656555 295.26366615 C245.63884803 295.29173028 245.63884803 295.29173028 249.55880737 298.6292057 C262.08433686 323.68026467 251.21727258 354.62335277 251.55880737 382.6292057 C327.12880737 382.6292057 402.69880737 382.6292057 480.55880737 382.6292057 C480.55880737 284.6192057 480.55880737 186.6092057 480.55880737 85.6292057 C323.14880737 85.6292057 165.73880737 85.6292057 3.55880737 85.6292057 Z " fill="#020101" transform="translate(13.441192626953125,55.37079429626465)"/>
<path d="M0 0 C3.4928413 2.49918817 6.75482279 5.1896874 10 8 C10.75925781 8.61488281 11.51851562 9.22976562 12.30078125 9.86328125 C28.99762677 23.79173788 39.35048515 44.79869788 43 66 C43.38214053 70.46943964 43.43080751 74.89136638 43.375 79.375 C43.36557373 80.55602295 43.35614746 81.7370459 43.34643555 82.95385742 C43.19645633 91.64249385 42.48258771 99.63127692 40 108 C39.6596875 109.16015625 39.319375 110.3203125 38.96875 111.515625 C31.09405396 135.67178719 13.66327715 156.47543648 -8.98730469 168.01220703 C-31.47967535 178.96712425 -58.55315596 182.34806122 -82.65625 174.62109375 C-97.72931325 169.24219819 -110.41068704 160.95296134 -122 150 C-122.64066406 149.4121875 -123.28132813 148.824375 -123.94140625 148.21875 C-139.72418905 133.24805669 -149.57056699 109.51177288 -150.23828125 87.97265625 C-150.65288744 62.02506247 -145.13768497 39.27606761 -128 19 C-127.33226562 18.18660156 -126.66453125 17.37320313 -125.9765625 16.53515625 C-94.87038933 -19.90510799 -39.76444691 -24.69905079 0 0 Z " fill="#010101" transform="translate(430,176)"/>
<path d="M0 0 C0.81982947 -0.00594224 1.63965894 -0.01188449 2.48433173 -0.0180068 C5.24111117 -0.03539885 7.99771711 -0.03839872 10.75454712 -0.04138184 C12.72715121 -0.05063684 14.69975171 -0.06068597 16.67234802 -0.07147217 C22.03803606 -0.09773519 27.40367404 -0.11061266 32.76941633 -0.11949348 C36.11984019 -0.1253518 39.47025031 -0.13356075 42.82066727 -0.14250183 C53.29809233 -0.16985406 63.77548605 -0.18918692 74.25294435 -0.19690561 C86.3578091 -0.20587167 98.46222268 -0.24098847 110.5669502 -0.2989068 C119.91733938 -0.34209735 129.26760142 -0.3623118 138.61808932 -0.36498785 C144.20583908 -0.36708681 149.79316481 -0.37896209 155.38080978 -0.41462708 C160.63569811 -0.4475155 165.889842 -0.45193623 171.14479637 -0.43434906 C173.0745626 -0.43280439 175.00436826 -0.4415457 176.93403435 -0.46126556 C179.56702319 -0.48659728 182.19735365 -0.47501841 184.83032227 -0.45410156 C185.59579231 -0.47021437 186.36126235 -0.48632718 187.14992845 -0.50292826 C189.99780769 -0.44993394 192.3278428 -0.26520431 194.63686538 1.50005716 C197.32168053 4.4817947 198.66729908 7.00228945 198.66360474 10.99293518 C198.67481354 11.8858577 198.68602234 12.77878021 198.6975708 13.69876099 C198.68430756 14.66051239 198.67104431 15.62226379 198.65737915 16.61315918 C198.66292816 17.63988235 198.66847717 18.66660553 198.67419434 19.72444153 C198.68598068 23.10961954 198.66172585 26.49345616 198.63589478 29.87854004 C198.63418348 32.23453205 198.63424955 34.59052597 198.63601685 36.94651794 C198.63436421 41.88018042 198.61567436 46.81338818 198.58413696 51.74694824 C198.54443832 58.07114631 198.54009472 64.39474946 198.54759979 70.7190485 C198.55066891 75.58236644 198.53855129 80.44555061 198.52146912 85.30883598 C198.51443806 87.64083454 198.51131471 89.97284825 198.51216125 92.30485725 C198.51036391 95.56285144 198.4889871 98.82013209 198.46206665 102.07800293 C198.46499725 103.04177856 198.46792786 104.0055542 198.47094727 104.99853516 C198.36315516 113.45208524 198.36315516 113.45208524 195.04214478 117.28088379 C191.34026107 119.82461466 187.43797502 119.56331744 183.1158905 119.5415802 C182.31154082 119.54540575 181.50719113 119.54923129 180.67846721 119.55317277 C177.98004674 119.56350129 175.2818391 119.55951091 172.58340454 119.55554199 C170.6500631 119.55988854 168.71672338 119.56507149 166.78338623 119.57102966 C161.52930334 119.58443684 156.27529231 119.58499644 151.02119565 119.58246636 C146.63734129 119.58139785 142.25350154 119.58627693 137.8696503 119.59107178 C127.52894402 119.60217284 117.18827406 119.60260096 106.8475647 119.59655762 C96.17410972 119.59051581 85.50078651 119.60283277 74.82735401 119.62412769 C65.66802681 119.64173091 56.50874158 119.64774708 47.34939808 119.64448994 C41.87693923 119.64267496 36.40457437 119.64533479 30.93213081 119.65920448 C25.78654889 119.67175743 20.6411727 119.66986272 15.49559402 119.65679359 C13.60616042 119.65442276 11.71671245 119.65718057 9.8272953 119.66541672 C7.2497508 119.67584306 4.6729019 119.66781683 2.09538269 119.65510559 C0.9715465 119.66616702 0.9715465 119.66616702 -0.17499346 119.67745191 C-4.6012825 119.6314703 -7.49305803 119.10052587 -10.95785522 116.28088379 C-12.88315665 113.448365 -13.20852077 111.18643344 -13.21182251 107.8026123 C-13.21746216 106.91099396 -13.22310181 106.01937561 -13.22891235 105.10073853 C-13.22486389 104.13022552 -13.22081543 103.15971252 -13.21664429 102.15979004 C-13.22014893 101.13175262 -13.22365356 100.10371521 -13.2272644 99.04452515 C-13.23607164 95.64407614 -13.23023602 92.24383494 -13.22348022 88.84338379 C-13.22482716 86.48213664 -13.22676793 84.12088976 -13.22927856 81.75964355 C-13.23222847 76.80999105 -13.22793642 71.86041072 -13.21859741 66.9107666 C-13.20720303 60.56185665 -13.2137632 54.21311578 -13.22574234 47.86421204 C-13.2329645 42.9881055 -13.23067135 38.11203914 -13.22548676 33.2359314 C-13.22415125 30.89472433 -13.22579451 28.55351362 -13.23044586 26.21231079 C-13.23551685 22.9421012 -13.22779255 19.67216662 -13.21664429 16.40197754 C-13.22069275 15.43146454 -13.22474121 14.46095154 -13.22891235 13.46102905 C-13.22327271 12.56941071 -13.21763306 11.67779236 -13.21182251 10.75915527 C-13.21106846 9.98635727 -13.21031441 9.21355927 -13.20953751 8.41734314 C-12.91765788 5.93965994 -12.2934336 4.38418654 -10.95785522 2.28088379 C-7.22300464 -0.2090166 -4.3241823 -0.00973288 0 0 Z " fill="#C8C8C8" transform="translate(52.957855224609375,160.7191162109375)"/>
<path d="M0 0 C157.41 0 314.82 0 477 0 C477 16.5 477 33 477 50 C319.59 50 162.18 50 0 50 C0 33.5 0 17 0 0 Z " fill="#FDA620" transform="translate(17,74)"/>
<path d="M0 0 C0.81982947 -0.00594224 1.63965894 -0.01188449 2.48433173 -0.0180068 C5.24111117 -0.03539885 7.99771711 -0.03839872 10.75454712 -0.04138184 C12.72715121 -0.05063684 14.69975171 -0.06068597 16.67234802 -0.07147217 C22.03803606 -0.09773519 27.40367404 -0.11061266 32.76941633 -0.11949348 C36.11984019 -0.1253518 39.47025031 -0.13356075 42.82066727 -0.14250183 C53.29809233 -0.16985406 63.77548605 -0.18918692 74.25294435 -0.19690561 C86.3578091 -0.20587167 98.46222268 -0.24098847 110.5669502 -0.2989068 C119.91733938 -0.34209735 129.26760142 -0.3623118 138.61808932 -0.36498785 C144.20583908 -0.36708681 149.79316481 -0.37896209 155.38080978 -0.41462708 C160.63569811 -0.4475155 165.889842 -0.45193623 171.14479637 -0.43434906 C173.0745626 -0.43280439 175.00436826 -0.4415457 176.93403435 -0.46126556 C179.56702319 -0.48659728 182.19735365 -0.47501841 184.83032227 -0.45410156 C185.59579231 -0.47021437 186.36126235 -0.48632718 187.14992845 -0.50292826 C189.99780769 -0.44993394 192.3278428 -0.26520431 194.63686538 1.50005716 C197.32168053 4.4817947 198.66729908 7.00228945 198.66360474 10.99293518 C198.67481354 11.8858577 198.68602234 12.77878021 198.6975708 13.69876099 C198.68430756 14.66051239 198.67104431 15.62226379 198.65737915 16.61315918 C198.66292816 17.63988235 198.66847717 18.66660553 198.67419434 19.72444153 C198.68598068 23.10961954 198.66172585 26.49345616 198.63589478 29.87854004 C198.63418348 32.23453205 198.63424955 34.59052597 198.63601685 36.94651794 C198.63436421 41.88018042 198.61567436 46.81338818 198.58413696 51.74694824 C198.54443832 58.07114631 198.54009472 64.39474946 198.54759979 70.7190485 C198.55066891 75.58236644 198.53855129 80.44555061 198.52146912 85.30883598 C198.51443806 87.64083454 198.51131471 89.97284825 198.51216125 92.30485725 C198.51036391 95.56285144 198.4889871 98.82013209 198.46206665 102.07800293 C198.46499725 103.04177856 198.46792786 104.0055542 198.47094727 104.99853516 C198.36315516 113.45208524 198.36315516 113.45208524 195.04214478 117.28088379 C191.34026107 119.82461466 187.43797502 119.56331744 183.1158905 119.5415802 C182.31154082 119.54540575 181.50719113 119.54923129 180.67846721 119.55317277 C177.98004674 119.56350129 175.2818391 119.55951091 172.58340454 119.55554199 C170.6500631 119.55988854 168.71672338 119.56507149 166.78338623 119.57102966 C161.52930334 119.58443684 156.27529231 119.58499644 151.02119565 119.58246636 C146.63734129 119.58139785 142.25350154 119.58627693 137.8696503 119.59107178 C127.52894402 119.60217284 117.18827406 119.60260096 106.8475647 119.59655762 C96.17410972 119.59051581 85.50078651 119.60283277 74.82735401 119.62412769 C65.66802681 119.64173091 56.50874158 119.64774708 47.34939808 119.64448994 C41.87693923 119.64267496 36.40457437 119.64533479 30.93213081 119.65920448 C25.78654889 119.67175743 20.6411727 119.66986272 15.49559402 119.65679359 C13.60616042 119.65442276 11.71671245 119.65718057 9.8272953 119.66541672 C7.2497508 119.67584306 4.6729019 119.66781683 2.09538269 119.65510559 C0.9715465 119.66616702 0.9715465 119.66616702 -0.17499346 119.67745191 C-4.6012825 119.6314703 -7.49305803 119.10052587 -10.95785522 116.28088379 C-12.88315665 113.448365 -13.20852077 111.18643344 -13.21182251 107.8026123 C-13.21746216 106.91099396 -13.22310181 106.01937561 -13.22891235 105.10073853 C-13.22486389 104.13022552 -13.22081543 103.15971252 -13.21664429 102.15979004 C-13.22014893 101.13175262 -13.22365356 100.10371521 -13.2272644 99.04452515 C-13.23607164 95.64407614 -13.23023602 92.24383494 -13.22348022 88.84338379 C-13.22482716 86.48213664 -13.22676793 84.12088976 -13.22927856 81.75964355 C-13.23222847 76.80999105 -13.22793642 71.86041072 -13.21859741 66.9107666 C-13.20720303 60.56185665 -13.2137632 54.21311578 -13.22574234 47.86421204 C-13.2329645 42.9881055 -13.23067135 38.11203914 -13.22548676 33.2359314 C-13.22415125 30.89472433 -13.22579451 28.55351362 -13.23044586 26.21231079 C-13.23551685 22.9421012 -13.22779255 19.67216662 -13.21664429 16.40197754 C-13.22069275 15.43146454 -13.22474121 14.46095154 -13.22891235 13.46102905 C-13.22327271 12.56941071 -13.21763306 11.67779236 -13.21182251 10.75915527 C-13.21106846 9.98635727 -13.21031441 9.21355927 -13.20953751 8.41734314 C-12.91765788 5.93965994 -12.2934336 4.38418654 -10.95785522 2.28088379 C-7.22300464 -0.2090166 -4.3241823 -0.00973288 0 0 Z M4.04214478 17.28088379 C4.04214478 45.00088379 4.04214478 72.72088379 4.04214478 101.28088379 C5.14356635 102.60764392 5.14356635 102.60764392 7.89823246 102.40393162 C9.18782084 102.40300982 10.47740923 102.40208803 11.80607605 102.40113831 C12.52155214 102.40199273 13.23702823 102.40284716 13.97418541 102.40372747 C16.38952291 102.40538437 18.8047921 102.3998575 21.22012329 102.39440918 C22.94438678 102.39412733 24.6686504 102.394285 26.39291382 102.39485168 C31.08899625 102.39513974 35.78505336 102.38924181 40.48112988 102.38227773 C45.38321636 102.37604543 50.28530336 102.37544049 55.18739319 102.37425232 C64.47697373 102.37113864 73.76654257 102.36292475 83.05611795 102.35290283 C95.60433771 102.33965793 108.15256065 102.33424208 120.70078564 102.32840061 C140.48124746 102.31898488 160.26168457 102.29906622 180.04214478 102.28088379 C180.04214478 74.23088379 180.04214478 46.18088379 180.04214478 17.28088379 C121.96214478 17.28088379 63.88214478 17.28088379 4.04214478 17.28088379 Z " fill="#030302" transform="translate(52.957855224609375,160.7191162109375)"/>
<path d="M0 0 C0.32823825 9.7546411 0.57501857 19.5073089 0.72537041 29.26631927 C0.79763433 33.80098552 0.89514493 38.33180579 1.05615234 42.86425781 C1.82558498 65.11703634 1.61737064 81.30383609 -12.32635498 99.73736572 C-14.56667909 102.76610484 -16.30362812 105.8928489 -18.078125 109.21484375 C-18.61421387 110.1797876 -19.15030273 111.14473145 -19.70263672 112.13891602 C-20.2132666 113.06244873 -20.72389648 113.98598145 -21.25 114.9375 C-26.68855044 124.7134832 -32.26586985 134.39467138 -38 144 C-55.23026655 131.90215328 -66.49591438 114.81255739 -70.4921875 94.02734375 C-73.8967899 70.34550693 -68.27348778 48.20917981 -54 29 C-41.81341908 13.12437057 -20.56739027 0 0 0 Z " fill="#7DD43E" transform="translate(368,178)"/>
<path d="M0 0 C1.6504792 0.01866562 3.30101405 0.03289348 4.9515686 0.0428772 C9.28333155 0.08095117 13.61170838 0.1790698 17.94213867 0.28991699 C22.36590765 0.39246006 26.79022733 0.43793734 31.21484375 0.48828125 C39.8869659 0.59533559 48.55634234 0.76585818 57.2265625 0.9765625 C57.50243548 18.66293862 48.8902369 34.83471589 36.92480469 47.42138672 C20.72006058 63.76226277 0.61349674 72.24320374 -22.3359375 72.4765625 C-32.98253499 72.41105304 -43.26228375 71.11397401 -52.7734375 65.9765625 C-51.1451721 59.76619126 -47.78828783 54.6216569 -44.5234375 49.1640625 C-38.72725564 39.36294307 -33.09078215 29.4864553 -27.56933594 19.52807617 C-27.02825195 18.55459229 -26.48716797 17.5811084 -25.9296875 16.578125 C-25.23069336 15.31476318 -25.23069336 15.31476318 -24.51757812 14.02587891 C-23.94201172 13.01960449 -23.36644531 12.01333008 -22.7734375 10.9765625 C-22.46232025 10.13813812 -22.151203 9.29971375 -21.83065796 8.43588257 C-17.42353748 -1.60639314 -9.55088183 -0.316739 0 0 Z " fill="#1C80CD" transform="translate(397.7734375,265.0234375)"/>
<path d="M0 0 C20.55001264 3.42500211 35.39944055 10.42069319 50 25 C50.66902344 25.65742188 51.33804688 26.31484375 52.02734375 26.9921875 C63.4095824 39.01967778 69.2029614 54.82665263 71 71 C47.57 71 24.14 71 0 71 C0 47.57 0 24.14 0 0 Z " fill="#FD3D19" transform="translate(385,178)"/>
<path d="M0 0 C8.91 0 17.82 0 27 0 C27 37.95 27 75.9 27 115 C18.09 115 9.18 115 0 115 C0 77.05 0 39.1 0 0 Z " fill="#7CD33E" transform="translate(139,323)"/>
<path d="M0 0 C1.15245712 -0.00563965 2.30491425 -0.0112793 3.49229431 -0.01708984 C4.75268021 -0.01304138 6.0130661 -0.00899292 7.31164551 -0.00482178 C8.6554839 -0.00753252 9.99932081 -0.01109392 11.34315491 -0.01544189 C14.9898016 -0.02455831 18.63633511 -0.02102475 22.28298378 -0.01468372 C26.09946625 -0.00961987 29.91593903 -0.01431625 33.73242188 -0.01745605 C40.14149719 -0.02109457 46.55052641 -0.0162996 52.95959473 -0.0067749 C60.36911383 0.00410944 67.77852287 0.00058378 75.1880393 -0.01042771 C81.54992283 -0.01950385 87.91177323 -0.02078427 94.27366114 -0.01555037 C98.07324178 -0.01243247 101.8727707 -0.01201641 105.67234802 -0.01862335 C109.24448232 -0.02440093 112.81647471 -0.02039243 116.38859367 -0.00883484 C118.32486145 -0.00492907 120.26114123 -0.01087041 122.19740295 -0.01708984 C123.34986008 -0.0114502 124.5023172 -0.00581055 125.68969727 0 C126.69109993 0.00075405 127.69250259 0.0015081 128.72425079 0.002285 C131.47039213 0.26602449 133.0536236 0.7386521 135.34484863 2.25396729 C137.84516518 6.0044421 137.88088417 7.81252994 137.34484863 12.25396729 C135.69212206 14.86986744 134.99020549 15.83216256 132.34484863 17.25396729 C127.92951309 18.00776327 123.55045079 17.91567809 119.08093262 17.86920166 C117.71723745 17.87270451 116.35354637 17.87836495 114.98986816 17.88601685 C111.2934604 17.90025007 107.59779784 17.8832194 103.90146136 17.85973167 C100.03160568 17.83960894 96.16178051 17.8455029 92.29188538 17.84783936 C85.79452233 17.8477858 79.29745031 17.82804049 72.8001709 17.79595947 C65.28888913 17.75905195 57.77798833 17.75028623 50.26662773 17.75725698 C43.03868748 17.76356202 35.81087783 17.75280872 28.58296394 17.73329163 C25.50768231 17.72511796 22.43246742 17.722408 19.35717583 17.72398376 C15.73650239 17.7248627 12.11619101 17.71064472 8.4956131 17.68475723 C6.53313997 17.67417899 4.57060499 17.67826784 2.60810852 17.68276978 C1.44026825 17.67141998 0.27242798 17.66007019 -0.93080139 17.64837646 C-1.94565392 17.64464775 -2.96050646 17.64091904 -4.0061121 17.63707733 C-7.05933463 17.19551339 -8.43228555 16.35747335 -10.65515137 14.25396729 C-11.883898 10.81488908 -11.97882006 7.3720955 -10.96765137 3.87896729 C-7.99993516 0.20465198 -4.50020411 0.00338863 0 0 Z " fill="#010101" transform="translate(82.6551513671875,226.74603271484375)"/>
<path d="M0 0 C1.35222062 -0.00350294 2.70443712 -0.00916347 4.05664062 -0.01681519 C7.72212708 -0.03104861 11.38686204 -0.01401673 15.05227661 0.00946999 C18.89096782 0.02959657 22.72962837 0.02369849 26.56835938 0.0213623 C33.01444878 0.02141586 39.46024489 0.04116098 45.90625 0.07324219 C53.35502864 0.11013429 60.80342311 0.11891757 68.25228119 0.11194468 C75.4225533 0.10563583 82.59269389 0.11640099 89.76293945 0.13591003 C92.81227495 0.14407728 95.86154316 0.14679483 98.91088867 0.1452179 C102.50283895 0.14433787 106.0944251 0.15858625 109.6862793 0.18444443 C111.63066805 0.19500386 113.57511904 0.190938 115.51953125 0.18643188 C116.68033203 0.19778168 117.84113281 0.20913147 119.03710938 0.2208252 C120.54694397 0.22641827 120.54694397 0.22641827 122.08728027 0.23212433 C125.32150576 0.68163562 127.21729741 1.70430938 129.84375 3.61523438 C131.38961876 6.70697189 131.13734521 9.2095299 130.84375 12.61523438 C128.97666495 14.98020877 127.52313569 16.27554153 124.84375 17.61523438 C123.04096239 17.7128972 121.23453617 17.74593132 119.42910767 17.74894714 C118.27939987 17.75321213 117.12969208 17.75747711 115.94514465 17.76187134 C114.67756821 17.76141815 113.40999176 17.76096497 112.10400391 17.76049805 C110.76046149 17.76348903 109.41691993 17.76689141 108.07337952 17.77067566 C104.41838268 17.7795267 100.76340924 17.78185425 97.10840273 17.78249145 C94.05917912 17.78343987 91.009961 17.78711744 87.96073949 17.79066354 C80.76711779 17.79881251 73.5735086 17.8012474 66.37988281 17.80053711 C58.9556437 17.79993638 51.53147726 17.81048618 44.10725653 17.82628077 C37.73692693 17.83935108 31.36662108 17.84472121 24.99627817 17.8440817 C21.1899532 17.84382654 17.38369277 17.84668774 13.57738113 17.85725975 C9.99707735 17.86693204 6.41689992 17.86702594 2.83659172 17.85974312 C0.89552577 17.85819671 -1.04554015 17.86655035 -2.98658752 17.87518311 C-4.71960869 17.86889137 -4.71960869 17.86889137 -6.48764038 17.86247253 C-7.49164068 17.8630173 -8.49564098 17.86356207 -9.53006554 17.86412334 C-12.24919163 17.6064261 -13.86343295 17.07022378 -16.15625 15.61523438 C-18.45593563 12.39567449 -18.70973638 9.48963905 -18.15625 5.61523438 C-13.78110377 -1.19211479 -7.45179305 -0.07815695 0 0 Z " fill="#010101" transform="translate(89.15625,195.384765625)"/>
<path d="M0 0 C8.91 0 17.82 0 27 0 C27 23.43 27 46.86 27 71 C18.09 71 9.18 71 0 71 C0 47.57 0 24.14 0 0 Z " fill="#1C7ECA" transform="translate(221,367)"/>
<path d="M0 0 C8.91 0 17.82 0 27 0 C27 11.55 27 23.1 27 35 C18.09 35 9.18 35 0 35 C0 23.45 0 11.9 0 0 Z " fill="#F93C19" transform="translate(57,403)"/>
<path d="M0 0 C1.0370105 -0.00361794 1.0370105 -0.00361794 2.0949707 -0.00730896 C3.55067708 -0.00633331 5.00642186 0.00699336 6.46191406 0.03198242 C8.6816291 0.06631544 10.8973626 0.05262782 13.1171875 0.03320312 C14.53647516 0.04010211 15.95575262 0.04977499 17.375 0.0625 C18.65761719 0.07337646 19.94023437 0.08425293 21.26171875 0.09545898 C25.2428259 0.7153791 26.90876819 1.75254507 29.6875 4.62890625 C30.8534741 8.63694222 31.11990501 10.68173336 29.375 14.50390625 C27.6875 16.62890625 27.6875 16.62890625 25.6875 17.62890625 C21.03188657 17.91154166 16.375541 17.94258276 11.7121582 17.97900391 C10.15927123 17.99554987 8.60646 18.02282267 7.05395508 18.06103516 C4.81030959 18.11595039 2.56844675 18.13769763 0.32421875 18.15234375 C-0.71041252 18.18634781 -0.71041252 18.18634781 -1.76594543 18.22103882 C-5.59734565 18.20433835 -7.20507115 17.71351037 -10.25073242 15.31494141 C-12.3125 12.62890625 -12.3125 12.62890625 -12.9375 9.12890625 C-11.61368527 1.71554379 -6.98395655 -0.00394822 0 0 Z " fill="#020100" transform="translate(112.3125,89.37109375)"/>
<path d="M0 0 C2.17300022 -0.00968252 4.34504502 -0.04069388 6.51782227 -0.07226562 C7.90518645 -0.07879831 9.29255739 -0.08404774 10.67993164 -0.08789062 C11.93974854 -0.09723633 13.19956543 -0.10658203 14.49755859 -0.11621094 C18.12535604 0.26618631 19.99575925 1.05028331 22.87915039 3.24023438 C24.44850633 6.37894625 24.23116142 8.77879259 23.87915039 12.24023438 C21.21147937 15.74133423 19.72451551 17.08924503 15.34570312 17.87133789 C14.00163511 17.89735805 12.65681115 17.89521296 11.31274414 17.86914062 C10.59683609 17.87155258 9.88092804 17.87396454 9.14332581 17.87644958 C7.6363468 17.87547384 6.12933075 17.8621448 4.62255859 17.8371582 C2.31947982 17.80277661 0.02022703 17.81652518 -2.28295898 17.8359375 C-3.75107422 17.82904015 -5.2191796 17.81936874 -6.68725586 17.80664062 C-7.71551231 17.81408043 -7.71551231 17.81408043 -8.76454163 17.82167053 C-12.0751754 17.74029099 -13.85524985 17.44153302 -16.52294922 15.41967773 C-18.79777538 12.31694693 -19.12084961 10.06506397 -19.12084961 6.24023438 C-14.32382143 -1.3688448 -8.12312621 0.0219371 0 0 Z " fill="#020100" transform="translate(58.120849609375,89.759765625)"/>
</svg>
