<?xml version="1.0" encoding="UTF-8"?>
<svg version="1.1" xmlns="http://www.w3.org/2000/svg" width="512" height="512">
<path d="M0 0 C0.66298534 -0.00709439 1.32597069 -0.01418877 2.00904649 -0.02149814 C4.22354028 -0.0390561 6.43627355 -0.02098765 8.65074158 -0.00291443 C10.24103595 -0.00805412 11.83132463 -0.01533577 13.42160034 -0.02459717 C17.73569941 -0.04311189 22.04918049 -0.03017304 26.36325383 -0.01050687 C30.87774581 0.00587763 35.39219858 -0.00293285 39.90670776 -0.00802612 C47.48685074 -0.01254685 55.06674692 0.00332252 62.64683533 0.03126526 C71.41238032 0.06332868 80.1774805 0.06329693 88.94305712 0.04605049 C97.37449352 0.03019214 105.80576672 0.03691373 114.23719597 0.0539875 C117.8260628 0.0608628 121.414799 0.05982071 125.00366402 0.05244255 C129.22847372 0.04478664 133.45277654 0.05688271 137.67749977 0.08429146 C139.22870122 0.09118329 140.77994995 0.09126468 142.33115005 0.08407593 C144.44732687 0.07539823 146.56193317 0.09130512 148.67797852 0.11352539 C149.86244096 0.11633231 151.0469034 0.11913923 152.26725864 0.12203121 C155.90565195 0.73421713 157.05859061 1.73259844 159.27549744 4.62818909 C160.39461456 7.98554046 160.3891533 10.51024295 160.37315369 14.04615784 C160.36993103 15.29977112 160.36670837 16.5533844 160.36338806 17.84498596 C160.35500916 19.15531799 160.34663025 20.46565002 160.33799744 21.81568909 C160.33298061 23.1509739 160.32841802 24.4862605 160.32432556 25.82154846 C160.31252439 29.09047382 160.29606041 32.359309 160.27549744 35.62818909 C161.31453217 35.61708603 162.35356689 35.60598297 163.42408752 35.59454346 C173.22307335 35.49312005 183.02195247 35.41820094 192.82134438 35.36912823 C197.85918199 35.34305098 202.89659538 35.30768697 207.93418884 35.25099182 C212.79715002 35.19660549 217.65970353 35.16675446 222.5229454 35.15380287 C224.3769154 35.14457489 226.23086346 35.12655442 228.08465958 35.0995388 C230.68472998 35.0631597 233.28312302 35.05824732 235.88340759 35.06056213 C236.64729797 35.04258575 237.41118835 35.02460937 238.19822693 35.00608826 C242.64900532 35.04887155 245.67001345 35.86235448 249.02665579 38.85359734 C251.6932603 42.64281623 251.09176658 47.32377835 251.0349884 51.78341675 C251.0441985 52.92291643 251.05340861 54.06241611 251.0628978 55.23644608 C251.08653395 59.0632125 251.06734521 62.88857188 251.04844666 66.71534729 C251.05328499 69.45499757 251.06715156 72.19458466 251.08065796 74.9342041 C251.10502609 80.83666606 251.10749353 86.73881115 251.0950737 92.64130592 C251.07714856 101.17524441 251.09227154 109.70887277 251.11545302 118.24278691 C251.15216625 132.08848234 251.16216333 145.93406301 251.15538025 159.77980042 C251.14884842 173.22938438 251.15488591 186.67886586 251.17784119 200.12843323 C251.17925184 200.95750438 251.1806625 201.78657553 251.1821159 202.64077006 C251.18927035 206.79998907 251.19667205 210.9592076 251.20419669 215.11842597 C251.26629832 249.62169419 251.28505108 284.12486799 251.27549744 318.62818909 C252.35436218 319.2126178 253.43322693 319.79704651 254.54478455 320.39918518 C255.98519185 321.19126252 257.42536497 321.98376583 258.86534119 322.77662659 C259.92754883 323.34981628 259.92754883 323.34981628 261.01121521 323.93458557 C268.08135701 327.8486681 273.59817555 332.92474455 279.27549744 338.62818909 C279.95096619 339.25596252 280.62643494 339.88373596 281.32237244 340.53053284 C299.91092638 358.00870856 308.18128669 384.44555308 309.40440369 409.24147034 C309.84050843 428.86618358 304.72617876 446.67975179 295.27549744 463.62818909 C294.730224 464.61690002 294.18495056 465.60561096 293.62315369 466.62428284 C280.39855037 488.90240432 258.24866368 503.18052197 233.90830994 510.66334534 C207.49690102 517.10150057 179.89270291 512.32839822 156.7908783 498.48487854 C141.2788156 488.76061078 123.63958077 472.68408092 118.67979431 454.4365387 C118.47966736 453.54140564 118.47966736 453.54140564 118.27549744 452.62818909 C117.17205396 452.63187626 116.06861048 452.63556343 114.93172932 452.63936234 C88.10018552 452.72810436 61.26866071 452.79386538 34.43700123 452.83543777 C21.46148276 452.8560755 8.48606116 452.88421933 -4.48939514 452.9299469 C-15.79692232 452.96977747 -27.10437935 452.99561309 -38.41197473 453.00454307 C-44.40098108 453.00976418 -50.38978675 453.02206108 -56.37872887 453.05110931 C-62.01344542 453.07821854 -67.64787824 453.0866431 -73.28265381 453.08061981 C-75.35270542 453.08172205 -77.42276632 453.08970249 -79.49276161 453.10501099 C-82.31585783 453.12486838 -85.13787821 453.12014366 -87.96099854 453.10920715 C-88.78298821 453.12085852 -89.60497789 453.13250988 -90.45187634 453.14451432 C-94.36804416 453.10341573 -96.29720027 452.89193244 -99.70972157 450.78562546 C-103.14505078 447.1070598 -102.85099388 443.81218302 -102.85593033 438.97921181 C-102.85798296 438.29683366 -102.8600356 437.61445552 -102.86215043 436.91139925 C-102.86783774 434.60812584 -102.86636106 432.30491191 -102.86494446 430.00163269 C-102.8675271 428.34031174 -102.87053997 426.67899141 -102.87394786 425.01767194 C-102.88203289 420.4392657 -102.88380826 415.86087513 -102.88454533 411.2824626 C-102.88639325 406.34985399 -102.8939392 401.41725356 -102.90068054 396.48464966 C-102.91427451 385.69351454 -102.92029009 374.90238312 -102.9246912 364.11124086 C-102.92745152 357.37712684 -102.93168846 350.64301426 -102.93619537 343.90890121 C-102.94838885 325.27487846 -102.95868839 306.64085687 -102.96207047 288.00683022 C-102.96229003 286.81374605 -102.9625096 285.62066189 -102.96273582 284.39142366 C-102.96295409 283.19544122 -102.96317237 281.99945878 -102.96339726 280.76723444 C-102.96384074 278.34360735 -102.9642873 275.91998025 -102.96473694 273.49635315 C-102.96495837 272.29414345 -102.9651798 271.09193376 -102.96540794 269.85329346 C-102.96935783 250.36350075 -102.98681732 230.87374539 -103.01009646 211.38396712 C-103.03378773 191.38827708 -103.04627128 171.3926058 -103.04743838 151.39690149 C-103.04835634 140.16428048 -103.05413893 128.93170813 -103.072258 117.69910049 C-103.0876289 108.1362926 -103.09279725 98.57354841 -103.08451989 89.01073052 C-103.08060284 84.1291499 -103.08159425 79.2476977 -103.09557724 74.36613274 C-103.10825297 69.90022809 -103.10717471 65.43454919 -103.09498653 60.96864514 C-103.09301851 59.35021566 -103.09615854 57.73177054 -103.10483089 56.1133631 C-103.11585192 53.91824831 -103.10848694 51.72394033 -103.09643936 49.52884865 C-103.09703645 48.30815512 -103.09763354 47.0874616 -103.09824872 45.82977736 C-102.68542598 42.29345081 -101.86375964 40.44801537 -99.72450256 37.62818909 C-95.94194633 35.10648493 -92.95964489 35.36098217 -88.58119202 35.40113831 C-87.75170044 35.40084625 -86.92220886 35.4005542 -86.06758118 35.4002533 C-83.3242092 35.40164729 -80.58110838 35.41721177 -77.83778381 35.43287659 C-75.93635201 35.43660647 -74.03491829 35.43945356 -72.13348389 35.44145203 C-67.12751464 35.44909044 -62.12166134 35.46874074 -57.11573792 35.49085999 C-52.00812855 35.51131391 -46.90050045 35.52045278 -41.79286194 35.53053284 C-31.77002452 35.55198641 -21.74727318 35.5861249 -11.72450256 35.62818909 C-11.75068665 34.74558411 -11.77687073 33.86297913 -11.80384827 32.95362854 C-11.88930531 29.66407328 -11.95186001 26.37570487 -11.99916077 23.08546448 C-12.02423404 21.66437618 -12.05830255 20.24341595 -12.10169983 18.82276917 C-12.16268114 16.77451447 -12.19078018 14.72797025 -12.21278381 12.67897034 C-12.2389679 11.44831848 -12.26515198 10.21766663 -12.29212952 8.94972229 C-11.10011201 1.97449727 -6.58900217 0.00326052 0 0 Z " fill="#020100" transform="translate(152.72450256347656,-0.6281890869140625)"/>
<path d="M0 0 C68.31 0 136.62 0 207 0 C207 61.05 207 122.1 207 185 C201.39 187.64 195.78 190.28 190 193 C168.1913822 207.01982573 153.24985051 225.25044847 145 250 C97.15 250 49.3 250 0 250 C0 167.5 0 85 0 0 Z " fill="#F2F2F2" transform="translate(123,130)"/>
<path d="M0 0 C23.76 0 47.52 0 72 0 C72.495 14.355 72.495 14.355 73 29 C75.32251426 33.88495525 75.32251426 33.88495525 78 35 C80.07902647 35.10490829 82.1614705 35.14393645 84.24311829 35.15390015 C84.89058413 35.1582824 85.53804998 35.16266465 86.205136 35.1671797 C88.38456296 35.18058278 90.56394947 35.1867499 92.7434082 35.19287109 C94.30207503 35.20077083 95.86074002 35.20903971 97.41940308 35.21765137 C102.54651133 35.24388486 107.67362781 35.25917965 112.80078125 35.2734375 C114.56452121 35.27879651 116.32826111 35.28417401 118.09200096 35.28956985 C125.42741977 35.31119993 132.76283636 35.32993754 140.098279 35.34119225 C150.61773624 35.35743733 161.13682444 35.39062699 171.65614253 35.44759309 C179.04898123 35.48626598 186.44172111 35.50582174 193.83465832 35.51111281 C198.25204932 35.51476975 202.66904684 35.52682699 207.08632851 35.55921555 C211.24214101 35.58925003 215.39732102 35.59562484 219.55321884 35.58383179 C221.07823606 35.58361067 222.60328223 35.59194778 224.12819862 35.60948563 C226.21153912 35.63214103 228.29257885 35.62390349 230.37593079 35.60800171 C232.1239019 35.61296693 232.1239019 35.61296693 233.90718555 35.61803246 C237.78396573 35.14076328 237.78396573 35.14076328 242 30 C242.33 20.1 242.66 10.2 243 0 C267.09 0 291.18 0 316 0 C316 85.47 316 170.94 316 259 C312.7 258.67 309.4 258.34 306 258 C303.70700428 257.86971967 301.41255645 257.76159172 299.1171875 257.68359375 C297.93125 257.64169922 296.7453125 257.59980469 295.5234375 257.55664062 C293.71746094 257.49766602 293.71746094 257.49766602 291.875 257.4375 C290.63234375 257.39431641 289.3896875 257.35113281 288.109375 257.30664062 C285.07300329 257.20153545 282.03656335 257.09938657 279 257 C278.99853344 256.01417057 278.99706688 255.02834114 278.99555588 254.01263809 C278.95898805 230.04373147 278.89957425 206.07496488 278.81609726 182.10617447 C278.77625956 170.5151165 278.74389112 158.92412689 278.72900391 147.33300781 C278.7160119 137.23215412 278.68911007 127.13145054 278.64538693 117.03068137 C278.62271692 111.68058898 278.60709263 106.33068211 278.60811615 100.98053741 C278.60885949 95.94735514 278.59104015 90.91458386 278.55883217 85.88150787 C278.55029624 84.0319913 278.54860814 82.18242883 278.55419731 80.332901 C278.5608034 77.81147628 278.54299947 75.29137223 278.51898193 72.77008057 C278.52674235 72.03466986 278.53450277 71.29925915 278.54249835 70.54156327 C278.48928499 67.39561452 278.1600479 65.27058298 276.54879379 62.54653645 C272.67835814 60.19806486 269.14864681 60.44425001 264.70031738 60.4853363 C263.27222268 60.47491801 263.27222268 60.47491801 261.81527758 60.46428925 C258.61684959 60.44595523 255.41915797 60.45630152 252.22070312 60.46655273 C249.93106021 60.45949756 247.64142196 60.45075425 245.35179138 60.44044495 C239.1266755 60.41789747 232.90181321 60.4209031 226.67667198 60.42976642 C221.48497993 60.43486736 216.29333591 60.42759109 211.10164881 60.42029434 C198.15708009 60.4023051 185.21266914 60.40872345 172.26810771 60.42646415 C161.022441 60.44116357 149.7770414 60.42653019 138.53140908 60.39769398 C126.98701842 60.36831188 115.44278075 60.35783257 103.89835119 60.36687618 C97.41592598 60.37181476 90.9337085 60.36953923 84.4513092 60.34908867 C78.35762895 60.33078552 72.26444673 60.33662491 66.17079353 60.36128807 C63.9310182 60.36631274 61.69120527 60.36276362 59.45145988 60.35013962 C56.40028821 60.33429913 53.35077472 60.34907542 50.29968262 60.37181091 C48.96136595 60.35405732 48.96136595 60.35405732 47.59601259 60.33594507 C43.7074847 60.39505871 41.64598372 60.52919978 38.45009518 62.85839939 C36.29230618 67.53320374 36.45177712 71.80112066 36.49879456 76.89379883 C36.49326016 78.00526937 36.48772576 79.1167399 36.48202366 80.26189137 C36.46838837 83.99383072 36.48340278 87.72510465 36.49829102 91.45703125 C36.49450889 94.12944379 36.48916252 96.80181155 36.48191833 99.47421265 C36.46798208 105.98377253 36.4755448 112.49313848 36.49059392 119.00268912 C36.50745053 126.58247972 36.5042442 134.16222195 36.50049984 141.74202549 C36.49462055 155.26588172 36.50879548 168.78964486 36.53344727 182.31347656 C36.55736825 195.43786102 36.56445162 208.5621211 36.55395508 221.68652344 C36.54254694 235.97635017 36.54061451 250.26611936 36.55505317 264.5559454 C36.55657902 266.07956377 36.55809938 267.60318215 36.55961418 269.12680054 C36.560372 269.87646003 36.56112981 270.62611952 36.56191059 271.39849597 C36.56665423 276.68263434 36.56480141 281.96674703 36.56054878 287.25088501 C36.55562316 293.6900523 36.56160176 300.12910197 36.58144308 306.56824231 C36.59131791 309.85394594 36.59481082 313.13943367 36.58855057 316.42515182 C36.58261636 319.98569463 36.59506787 323.54570629 36.61231995 327.10620117 C36.6063099 328.1465643 36.60029986 329.18692743 36.59410769 330.25881672 C36.61948984 337.13431763 36.61948984 337.13431763 40 343 C42.74211463 344.37105731 44.94042954 344.14051319 48.01101685 344.15821838 C49.29271759 344.1680072 50.57441833 344.17779602 51.8949585 344.18788147 C53.32336388 344.19378606 54.75176966 344.19959648 56.18017578 344.20532227 C57.67799146 344.21489808 59.17580441 344.22490798 60.6736145 344.23532104 C64.74772894 344.26240834 68.82185501 344.28339715 72.89600992 344.30332303 C77.15081825 344.32515904 81.40559057 344.35255937 85.66036987 344.37937927 C93.72095775 344.42933848 101.78156557 344.47426531 109.84219253 344.51740164 C119.0174206 344.56674646 128.19261256 344.62167479 137.36780572 344.67708123 C156.2451703 344.79095081 175.12256894 344.89777899 194 345 C194.02505615 345.66418945 194.0501123 346.32837891 194.07592773 347.01269531 C194.19368125 350.0919098 194.31557536 353.17094795 194.4375 356.25 C194.47681641 357.29414063 194.51613281 358.33828125 194.55664062 359.4140625 C194.61948242 360.98027344 194.61948242 360.98027344 194.68359375 362.578125 C194.72025146 363.52075195 194.75690918 364.46337891 194.79467773 365.43457031 C195.09386513 370.62997197 195.56783056 375.81396673 196 381 C131.32 381 66.64 381 0 381 C0 255.27 0 129.54 0 0 Z " fill="#F49D06" transform="translate(69,53)"/>
<path d="M0 0 C20.59767912 -0.63761322 41.29105282 6.5262543 56.58984375 20.41015625 C71.23293288 34.24616456 83.11693541 52.99777959 84.5793457 73.66113281 C85.15331906 98.38543546 81.46813509 120.18616461 64.40234375 139.16015625 C63.93570313 139.76730469 63.4690625 140.37445313 62.98828125 141 C52.0801743 155.06571686 33.03180117 164.17080026 15.69873047 166.88330078 C-7.62611594 169.69537561 -29.05863972 163.80320801 -47.6171875 149.55078125 C-63.60824094 136.72440549 -74.63789971 117.50090828 -77.59765625 97.16015625 C-79.23240931 70.17658399 -74.31806048 47.14101076 -56.20703125 26.42578125 C-41.41755705 10.77142551 -21.55689296 1.3290716 0 0 Z " fill="#FDCD00" transform="translate(358.59765625,326.83984375)"/>
<path d="M0 0 C44.55 0 89.1 0 135 0 C135 17.49 135 34.98 135 53 C90.45 53 45.9 53 0 53 C0 35.51 0 18.02 0 0 Z " fill="#989898" transform="translate(159,18)"/>
<path d="M0 0 C4.70379141 2.74713941 7.69719284 6.34332938 10.4375 11 C10.81132812 11.58136719 11.18515625 12.16273438 11.5703125 12.76171875 C12.84356698 16.0480918 12.80604185 19.27551388 12.8125 22.75 C12.83699219 23.42804688 12.86148438 24.10609375 12.88671875 24.8046875 C12.93269774 32.8663367 9.22455296 38.63628779 3.72442627 44.28851318 C3.11709656 44.89245911 2.50976685 45.49640503 1.8840332 46.11865234 C1.23466293 46.77985077 0.58529266 47.44104919 -0.08375549 48.12228394 C-2.21610404 50.28731493 -4.36289408 52.43726689 -6.51171875 54.5859375 C-8.00938351 56.09392617 -9.50667689 57.60228376 -11.00361633 59.11099243 C-14.13635332 62.26311665 -17.27693238 65.40717641 -20.42260742 68.54638672 C-24.44504331 72.5628176 -28.44174349 76.60383318 -32.4322691 80.65193748 C-35.5146464 83.77133809 -38.61295831 86.87452678 -41.71598244 89.97337723 C-43.19627349 91.4565344 -44.6709893 92.94527852 -46.13986778 94.43973923 C-48.19759593 96.52952285 -50.27650096 98.59575525 -52.36206055 100.65771484 C-53.25787338 101.58185181 -53.25787338 101.58185181 -54.17178345 102.5246582 C-58.60636223 106.84121253 -62.4779158 108.18658242 -68.5625 109 C-69.42810547 109.16580566 -70.29371094 109.33161133 -71.18554688 109.50244141 C-73.47672396 109.88412631 -75.7688715 110.25831877 -78.0625 110.625 C-79.24779297 110.82609375 -79.24779297 110.82609375 -80.45703125 111.03125 C-93.91313283 113.18951179 -93.91313283 113.18951179 -99.625 110.625 C-104.43969004 104.10187155 -101.07087792 92.41016527 -100 84.875 C-99.86787109 83.74707031 -99.73574219 82.61914062 -99.59960938 81.45703125 C-99.44169922 80.35488281 -99.28378906 79.25273437 -99.12109375 78.1171875 C-98.99017334 77.13347168 -98.85925293 76.14975586 -98.72436523 75.13623047 C-96.99226067 70.46074922 -94.00227585 67.55387871 -90.5625 64 C-90.09989462 63.52105286 -89.63728924 63.04210571 -89.16066551 62.54864502 C-85.09237314 58.34813975 -80.9755349 54.19652743 -76.8515625 50.05078125 C-75.86856234 49.0616678 -75.86856234 49.0616678 -74.86570358 48.05257225 C-71.40234895 44.56847919 -67.93581418 41.08758535 -64.46679688 37.60913086 C-60.90222457 34.03346475 -57.34949484 30.44626512 -53.79923439 26.85639668 C-51.04855312 24.0794981 -48.28895346 21.31159149 -45.52692795 18.54598045 C-44.21354593 17.22775303 -42.90352008 15.90617228 -41.59706497 14.58107948 C-29.72946216 2.55463533 -18.00219759 -7.99493367 0 0 Z " fill="#010100" transform="translate(408.5625,359)"/>
<path d="M0 0 C1.73501518 -0.01073296 1.73501518 -0.01073296 3.50508118 -0.02168274 C4.78043732 -0.02437164 6.05579346 -0.02706055 7.36979675 -0.02983093 C8.72156957 -0.0360949 10.07334067 -0.04274165 11.42510986 -0.04974365 C15.10288981 -0.0671593 18.78065675 -0.07770692 22.45846772 -0.08594918 C24.75574803 -0.09109811 27.05302429 -0.09717389 29.35030174 -0.10346031 C36.53654614 -0.12251391 43.72278024 -0.13674473 50.90904504 -0.14507228 C59.20701966 -0.15484659 67.50472766 -0.18117023 75.80260831 -0.22157317 C82.21456563 -0.25172308 88.62644647 -0.26654007 95.03847331 -0.26985329 C98.86895773 -0.27220507 102.69915737 -0.28118156 106.52956581 -0.30631447 C110.13377355 -0.3295809 113.73750873 -0.33383456 117.34177208 -0.32355309 C119.29341549 -0.32282101 121.24503482 -0.34192237 123.19657898 -0.36161804 C124.94428337 -0.35120232 124.94428337 -0.35120232 126.72729492 -0.34057617 C128.2429742 -0.3441587 128.2429742 -0.3441587 129.78927326 -0.34781361 C133.30907318 0.28232801 134.99168542 1.70573488 137.55412292 4.14717102 C139.12347886 7.2858829 138.90613395 9.68572924 138.55412292 13.14717102 C136.9050895 15.78393502 136.21780931 16.72717228 133.55412292 18.14717102 C129.07832879 18.90650711 124.63681988 18.81920202 120.10661316 18.77827454 C118.7232115 18.7834153 117.33981638 18.79069776 115.95643616 18.79995728 C112.20633612 18.8184585 108.4569478 18.80554222 104.70687747 18.78586698 C100.78095607 18.76947151 96.85507942 18.77829446 92.92913818 18.78338623 C86.33762756 18.78790568 79.74640085 18.7720455 73.154953 18.74409485 C65.53455038 18.71203012 57.91465941 18.71206417 50.29422039 18.72930962 C42.96161575 18.74517226 35.62919868 18.73844377 28.29660225 18.7213726 C25.17663136 18.71450046 22.05681075 18.71553612 18.93684196 18.72291756 C15.26356411 18.73057799 11.59086878 18.7184632 7.91769028 18.69106865 C5.92658555 18.68089595 3.9354109 18.69036935 1.94430542 18.70039368 C0.75963684 18.68766922 -0.42503174 18.67494476 -1.64559937 18.66183472 C-2.67520059 18.6590278 -3.70480181 18.65622087 -4.76560307 18.6533289 C-8.14697135 18.01477247 -9.33435492 16.80951058 -11.44587708 14.14717102 C-12.17907109 11.08500777 -12.02491926 8.23539601 -11.44587708 5.14717102 C-8.08418515 0.66491513 -5.40244826 0.02287404 0 0 Z " fill="#050505" transform="translate(163.4458770751953,181.8528289794922)"/>
<path d="M0 0 C1.36369269 -0.00186483 2.72738388 -0.00590315 4.09106445 -0.01194763 C7.7874932 -0.0219143 11.48315394 -0.00076674 15.17947125 0.02653241 C19.0493147 0.05038116 22.9191434 0.04741761 26.78904724 0.0478363 C33.28641749 0.05246272 39.78349447 0.07609419 46.28076172 0.11230469 C53.7919943 0.15405484 61.30296293 0.17162066 68.81430489 0.17492443 C76.8132073 0.17852442 84.81201478 0.19739849 92.81087756 0.22204471 C95.11517103 0.22827197 97.41945727 0.23190912 99.72375679 0.23507881 C103.34436675 0.24098161 106.96478832 0.25730073 110.58531952 0.28168297 C112.54779531 0.29266779 114.51031783 0.29396185 116.4728241 0.29498291 C117.64066437 0.30495804 118.80850464 0.31493317 120.01173401 0.32521057 C121.02658654 0.32986108 122.04143908 0.33451159 123.08704472 0.33930302 C125.8439381 0.60995352 127.43683173 1.07666135 129.73608398 2.59936523 C132.18129513 6.26718195 132.45846157 9.33389756 131.73608398 13.59936523 C129.86593304 16.03056146 128.45470053 17.24005696 125.73608398 18.59936523 C123.91038276 18.70346561 122.08088227 18.74324299 120.25224304 18.75326538 C118.50460663 18.76616608 118.50460663 18.76616608 116.72166443 18.77932739 C114.79460411 18.78571732 114.79460411 18.78571732 112.82861328 18.79223633 C111.46698802 18.80013675 110.10536485 18.80840566 108.7437439 18.8170166 C104.26595054 18.84324291 99.78814779 18.85854447 95.31030273 18.87280273 C93.76944281 18.8781621 92.22858295 18.8835396 90.68772316 18.88893509 C84.2787682 18.91056439 77.86981577 18.92930158 71.46083355 18.94055748 C62.27261429 18.95680005 53.08481769 18.98998421 43.89675778 19.04695833 C37.43809394 19.08564387 30.97954322 19.10518848 24.52076656 19.11047804 C20.6622647 19.11413337 16.80421357 19.12617292 12.94583702 19.15858078 C9.31529472 19.18863779 5.68547642 19.19498237 2.05483627 19.18319702 C0.08885172 19.1828708 -1.87708799 19.20735225 -3.84291077 19.23257446 C-13.45248174 19.16445891 -13.45248174 19.16445891 -16.5533905 16.19180298 C-18.18906942 13.71280122 -18.94789414 12.52467999 -18.88891602 9.59936523 C-18.90180664 8.95999023 -18.91469727 8.32061523 -18.92797852 7.66186523 C-16.02373552 -1.35837183 -7.952965 -0.09249496 0 0 Z " fill="#010101" transform="translate(170.263916015625,310.400634765625)"/>
<path d="M0 0 C1.14826263 -0.00571014 2.29652527 -0.01142029 3.47958374 -0.01730347 C4.74558914 -0.01842133 6.01159454 -0.01953918 7.31596375 -0.02069092 C8.65788408 -0.02531842 9.9998031 -0.03034299 11.34172058 -0.03573608 C14.99264737 -0.04886956 18.64355577 -0.05530701 22.2945025 -0.05974674 C24.57503206 -0.06267625 26.85555658 -0.06678085 29.1360836 -0.07125092 C36.27000541 -0.08492902 43.40391571 -0.09459385 50.53784972 -0.09845281 C58.77521576 -0.10293296 67.0124158 -0.12047744 75.24973136 -0.1494534 C81.61498108 -0.17106735 87.9801841 -0.18115695 94.34547013 -0.18249393 C98.14795348 -0.18354227 101.95028086 -0.18945597 105.7527256 -0.20731354 C109.33061248 -0.22378913 112.9082261 -0.22595238 116.48613739 -0.21717453 C118.4234465 -0.21603665 120.36074652 -0.22975846 122.29800415 -0.243927 C123.45472626 -0.23835785 124.61144836 -0.2327887 125.80322266 -0.22705078 C127.30784042 -0.22925062 127.30784042 -0.22925062 128.8428545 -0.2314949 C132.10452234 0.20976803 133.95223509 1.19888806 136.59208679 3.14044189 C139.09240334 6.89091671 139.12812233 8.69900455 138.59208679 13.14044189 C136.94048624 15.76091735 136.24144648 16.71856852 133.59208679 18.14044189 C129.15215962 18.89945489 124.74698442 18.81249809 120.25224304 18.77154541 C118.88031591 18.77668629 117.50839538 18.78396884 116.13648987 18.79322815 C112.41731138 18.81172963 108.69885054 18.79881226 104.979702 18.77913785 C101.08494497 18.7627393 97.19023296 18.77156591 93.29545593 18.7766571 C86.75521903 18.78117674 80.21526824 18.76531653 73.6750946 18.73736572 C66.1171946 18.70531419 58.55981061 18.70532984 51.00187397 18.72258049 C43.72693738 18.73845257 36.4521897 18.73170771 29.17726135 18.71464348 C26.08323631 18.70777665 22.98936286 18.70880158 19.89533997 18.71618843 C16.25078475 18.72385821 12.60681569 18.71170352 8.96236038 18.68433952 C6.98933999 18.67418464 5.01624916 18.68363106 3.04322815 18.69366455 C1.86559906 18.68094009 0.68796997 18.66821564 -0.52534485 18.65510559 C-2.05730247 18.65089521 -2.05730247 18.65089521 -3.62020874 18.64659977 C-7.15476167 18.00483813 -8.85360962 16.61812656 -11.40791321 14.14044189 C-12.27704175 11.0741996 -12.04273371 8.25163427 -11.40791321 5.14044189 C-8.05649478 0.67188399 -5.38681686 0.01599282 0 0 Z " fill="#040404" transform="translate(163.4079132080078,224.85955810546875)"/>
<path d="M0 0 C1.14826263 -0.00571014 2.29652527 -0.01142029 3.47958374 -0.01730347 C4.74558914 -0.01842133 6.01159454 -0.01953918 7.31596375 -0.02069092 C8.65788408 -0.02531842 9.9998031 -0.03034299 11.34172058 -0.03573608 C14.99264737 -0.04886956 18.64355577 -0.05530701 22.2945025 -0.05974674 C24.57503206 -0.06267625 26.85555658 -0.06678085 29.1360836 -0.07125092 C36.27000541 -0.08492902 43.40391571 -0.09459385 50.53784972 -0.09845281 C58.77521576 -0.10293296 67.0124158 -0.12047744 75.24973136 -0.1494534 C81.61498108 -0.17106735 87.9801841 -0.18115695 94.34547013 -0.18249393 C98.14795348 -0.18354227 101.95028086 -0.18945597 105.7527256 -0.20731354 C109.33061248 -0.22378913 112.9082261 -0.22595238 116.48613739 -0.21717453 C118.4234465 -0.21603665 120.36074652 -0.22975846 122.29800415 -0.243927 C123.45472626 -0.23835785 124.61144836 -0.2327887 125.80322266 -0.22705078 C127.30784042 -0.22925062 127.30784042 -0.22925062 128.8428545 -0.2314949 C133.02748436 0.33463326 135.64833948 2.19669458 138.59208679 5.14044189 C139.15320904 12.09835773 139.15320904 12.09835773 137.27958679 15.57794189 C134.16883579 18.4582669 131.02279735 18.27220804 126.98799133 18.29434204 C125.23829292 18.30724274 125.23829292 18.30724274 123.45324707 18.32040405 C122.17213547 18.324664 120.89102386 18.32892395 119.5710907 18.33331299 C118.20931795 18.3412159 116.84754728 18.34948497 115.48577881 18.35809326 C111.01342258 18.38428569 106.5410571 18.39961545 102.06864929 18.41387939 C100.52871571 18.41923972 98.98878219 18.42461723 97.44884872 18.43001175 C91.04414239 18.45163402 84.63943855 18.47037163 78.23470497 18.48163414 C69.05607993 18.49788118 59.87787765 18.53108422 50.69941199 18.58803499 C44.24497424 18.62671915 37.79064967 18.64626484 31.33609903 18.6515547 C27.48096532 18.65520955 23.62628281 18.66724451 19.77127457 18.69965744 C16.14482266 18.72971287 12.51909556 18.73605961 8.8925457 18.72427368 C6.92895606 18.72394747 4.96541131 18.74842865 3.00198364 18.77365112 C-6.5956082 18.7055366 -6.5956082 18.7055366 -9.69859314 15.7350769 C-12.35934063 11.69623788 -12.08868797 9.90586522 -11.40791321 5.14044189 C-7.9963298 0.70538346 -5.41038912 0.0160628 0 0 Z " fill="#020202" transform="translate(163.4079132080078,267.85955810546875)"/>
<path d="M0 0 C4.52615993 3.67832017 8.39424999 7.41086363 12 12 C5.75887919 18.52048416 -0.51511107 25.00702962 -6.832201 31.45394707 C-9.76528313 34.44937564 -12.68628126 37.45478038 -15.58154297 40.48681641 C-18.38183522 43.41853258 -21.21137062 46.31899284 -24.06261826 49.20114517 C-25.13927768 50.29979557 -26.20541264 51.40887346 -27.25998306 52.52874374 C-34.09611542 59.77041212 -39.16560013 63.22253138 -49.37008667 63.95388794 C-50.23795807 63.96910492 -51.10582947 63.9843219 -52 64 C-51.81791703 53.61524559 -49.44365921 47.93754466 -42.15011597 40.79055786 C-41.05644486 39.75813273 -39.96212025 38.7263995 -38.8671875 37.6953125 C-37.74641573 36.59697449 -36.62830234 35.49591789 -35.51272583 34.39230347 C-32.59584716 31.52083631 -29.64478441 28.68727535 -26.68457031 25.8605957 C-23.65974254 22.95942185 -20.66938625 20.02316377 -17.67578125 17.08984375 C-11.81667686 11.35871472 -5.92091837 5.66724279 0 0 Z " fill="#EDEDED" transform="translate(378,388)"/>
<path d="M0 0 C2.4375 2.1875 2.4375 2.1875 4 5 C3.75 8.3125 3.75 8.3125 3 11 C-1.13621084 7.6189962 -4.81316569 4.33409466 -8 0 C-4.99733781 -1.5013311 -3.18669322 -0.8922741 0 0 Z " fill="#ECECEC" transform="translate(400,375)"/>
</svg>
