<?xml version="1.0" encoding="UTF-8"?>
<svg version="1.1" xmlns="http://www.w3.org/2000/svg" width="512" height="512">
<path d="M0 0 C13.57942438 10.80356622 25.05302567 23.14693201 34.02978516 37.99633789 C34.57554199 38.87177246 34.57554199 38.87177246 35.13232422 39.76489258 C42.2433406 51.31129913 46.04691058 64.11122636 50.02978516 76.99633789 C50.95017578 76.8377832 51.87056641 76.67922852 52.81884766 76.51586914 C75.76851655 73.27435796 97.64912002 76.89760151 116.90087891 89.94165039 C119.39119892 91.86086738 121.71627202 93.86806346 124.02978516 95.99633789 C124.85865234 96.73368164 125.68751953 97.47102539 126.54150391 98.23071289 C141.1663552 111.93731165 150.61952472 130.98727677 151.36572266 151.13305664 C151.60299503 168.1676657 150.11020181 181.66865154 141.49658203 196.63354492 C139.37153099 200.41787788 139.37153099 200.41787788 139.61962891 204.61743164 C140.08498047 205.4024707 140.55033203 206.18750977 141.02978516 206.99633789 C141.49255859 207.86129883 141.95533203 208.72625977 142.43212891 209.61743164 C142.93873047 210.5468457 143.44533203 211.47625977 143.96728516 212.43383789 C151.56998827 227.58347857 151.62806141 243.22998924 146.66699219 259.14233398 C141.78095512 273.3586426 130.19640791 285.15726122 116.84228516 291.74633789 C103.16429183 297.55086447 90.33089962 298.04144211 76.02978516 294.99633789 C75.43810547 295.72079102 74.84642578 296.44524414 74.23681641 297.19165039 C73.44662109 298.15844727 72.65642578 299.12524414 71.84228516 300.12133789 C71.06498047 301.07266602 70.28767578 302.02399414 69.48681641 303.00415039 C68.67599609 303.99157227 67.86517578 304.97899414 67.02978516 305.99633789 C66.23701172 306.99665039 65.44423828 307.99696289 64.62744141 309.02758789 C51.09076969 324.49806985 30.30943465 334.55300663 10.02978516 336.99633789 C-14.08414953 338.31831774 -35.66743066 335.4084556 -55.34912109 320.34008789 C-57.86211375 318.70751184 -57.86211375 318.70751184 -60.43505859 319.49633789 C-62.8578257 320.92983954 -65.09607701 322.49466354 -67.31933594 324.22021484 C-80.89597549 334.71490501 -97.32004219 341.97431569 -113.97021484 345.99633789 C-114.6132959 346.15714844 -115.25637695 346.31795898 -115.91894531 346.48364258 C-151.36418769 354.94167089 -188.25959577 347.4136998 -219.18115234 329.09399414 C-230.99825547 321.51057757 -241.26865082 312.09209639 -250.97021484 301.99633789 C-251.70884766 302.3946582 -252.44748047 302.79297852 -253.20849609 303.20336914 C-271.62854577 312.82298847 -290.92504332 314.43119779 -310.97021484 308.99633789 C-330.27837093 302.89524768 -345.07401112 288.97115476 -354.40380859 271.27758789 C-355.72298334 268.55312016 -356.8812975 265.82034332 -357.97021484 262.99633789 C-358.29119141 262.16618164 -358.61216797 261.33602539 -358.94287109 260.48071289 C-364.64021619 242.3552057 -361.62494814 221.78988782 -353.90771484 204.87133789 C-348.16136275 194.00617965 -340.15908055 184.91470349 -329.97021484 177.99633789 C-331.27403926 173.94667126 -332.77140495 170.04644261 -334.40771484 166.12133789 C-343.33637213 142.74304884 -342.04536182 116.81654579 -331.97021484 93.99633789 C-326.82659029 83.61723834 -320.17758755 75.10785807 -311.97021484 66.99633789 C-311.24189453 66.25770508 -310.51357422 65.51907227 -309.76318359 64.75805664 C-292.72531205 48.47882873 -268.43556124 41.38325265 -245.32958984 41.78149414 C-233.19675686 42.22104997 -222.0910637 45.18259903 -210.97021484 49.99633789 C-209.30527924 50.66731604 -207.63918193 51.33545129 -205.97021484 51.99633789 C-205.72142578 51.15071289 -205.47263672 50.30508789 -205.21630859 49.43383789 C-194.88835963 20.94294419 -167.45040673 -2.15415669 -140.97021484 -15.00366211 C-95.331578 -36.06053374 -40.02828755 -30.54947002 0 0 Z " fill="#98EAFB" transform="translate(360.97021484375,95.003662109375)"/>
<path d="M0 0 C13.57942438 10.80356622 25.05302567 23.14693201 34.02978516 37.99633789 C34.57554199 38.87177246 34.57554199 38.87177246 35.13232422 39.76489258 C42.2433406 51.31129913 46.04691058 64.11122636 50.02978516 76.99633789 C50.95017578 76.8377832 51.87056641 76.67922852 52.81884766 76.51586914 C75.76851655 73.27435796 97.64912002 76.89760151 116.90087891 89.94165039 C119.39119892 91.86086738 121.71627202 93.86806346 124.02978516 95.99633789 C124.85865234 96.73368164 125.68751953 97.47102539 126.54150391 98.23071289 C141.1663552 111.93731165 150.61952472 130.98727677 151.36572266 151.13305664 C151.60299503 168.1676657 150.11020181 181.66865154 141.49658203 196.63354492 C139.37153099 200.41787788 139.37153099 200.41787788 139.61962891 204.61743164 C140.08498047 205.4024707 140.55033203 206.18750977 141.02978516 206.99633789 C141.49255859 207.86129883 141.95533203 208.72625977 142.43212891 209.61743164 C142.93873047 210.5468457 143.44533203 211.47625977 143.96728516 212.43383789 C151.56998827 227.58347857 151.62806141 243.22998924 146.66699219 259.14233398 C141.78095512 273.3586426 130.19640791 285.15726122 116.84228516 291.74633789 C103.16429183 297.55086447 90.33089962 298.04144211 76.02978516 294.99633789 C75.43810547 295.72079102 74.84642578 296.44524414 74.23681641 297.19165039 C73.44662109 298.15844727 72.65642578 299.12524414 71.84228516 300.12133789 C71.06498047 301.07266602 70.28767578 302.02399414 69.48681641 303.00415039 C68.67599609 303.99157227 67.86517578 304.97899414 67.02978516 305.99633789 C66.23701172 306.99665039 65.44423828 307.99696289 64.62744141 309.02758789 C51.09076969 324.49806985 30.30943465 334.55300663 10.02978516 336.99633789 C-14.08414953 338.31831774 -35.66743066 335.4084556 -55.34912109 320.34008789 C-57.86211375 318.70751184 -57.86211375 318.70751184 -60.43505859 319.49633789 C-62.8578257 320.92983954 -65.09607701 322.49466354 -67.31933594 324.22021484 C-80.89597549 334.71490501 -97.32004219 341.97431569 -113.97021484 345.99633789 C-114.6132959 346.15714844 -115.25637695 346.31795898 -115.91894531 346.48364258 C-151.36418769 354.94167089 -188.25959577 347.4136998 -219.18115234 329.09399414 C-230.99825547 321.51057757 -241.26865082 312.09209639 -250.97021484 301.99633789 C-251.70884766 302.3946582 -252.44748047 302.79297852 -253.20849609 303.20336914 C-271.62854577 312.82298847 -290.92504332 314.43119779 -310.97021484 308.99633789 C-330.27837093 302.89524768 -345.07401112 288.97115476 -354.40380859 271.27758789 C-355.72298334 268.55312016 -356.8812975 265.82034332 -357.97021484 262.99633789 C-358.29119141 262.16618164 -358.61216797 261.33602539 -358.94287109 260.48071289 C-364.64021619 242.3552057 -361.62494814 221.78988782 -353.90771484 204.87133789 C-348.16136275 194.00617965 -340.15908055 184.91470349 -329.97021484 177.99633789 C-331.27403926 173.94667126 -332.77140495 170.04644261 -334.40771484 166.12133789 C-343.33637213 142.74304884 -342.04536182 116.81654579 -331.97021484 93.99633789 C-326.82659029 83.61723834 -320.17758755 75.10785807 -311.97021484 66.99633789 C-311.24189453 66.25770508 -310.51357422 65.51907227 -309.76318359 64.75805664 C-292.72531205 48.47882873 -268.43556124 41.38325265 -245.32958984 41.78149414 C-233.19675686 42.22104997 -222.0910637 45.18259903 -210.97021484 49.99633789 C-209.30527924 50.66731604 -207.63918193 51.33545129 -205.97021484 51.99633789 C-205.72142578 51.15071289 -205.47263672 50.30508789 -205.21630859 49.43383789 C-194.88835963 20.94294419 -167.45040673 -2.15415669 -140.97021484 -15.00366211 C-95.331578 -36.06053374 -40.02828755 -30.54947002 0 0 Z M-101.97021484 -5.00366211 C-103.14970703 -4.72393555 -104.32919922 -4.44420898 -105.54443359 -4.15600586 C-122.77377448 0.14697412 -138.71859504 7.3412471 -151.62646484 19.75805664 C-153.50673193 21.5537117 -155.40646664 23.18515504 -157.41162109 24.83227539 C-160.9588512 27.85622954 -163.70169513 31.15323638 -166.40771484 34.93383789 C-166.87580566 35.58352539 -167.34389648 36.23321289 -167.82617188 36.90258789 C-175.7374914 48.12493113 -181.27958169 59.77281425 -184.97021484 72.99633789 C-185.21642578 73.8587207 -185.46263672 74.72110352 -185.71630859 75.60961914 C-187.20753415 82.05788413 -187.16984407 88.59718196 -187.22021484 95.18383789 C-187.22964111 96.12300049 -187.23906738 97.06216309 -187.2487793 98.02978516 C-187.18141012 112.39721442 -181.55722911 124.909283 -171.97021484 135.55883789 C-161.89133465 145.10373768 -149.00022664 149.90868953 -135.28271484 150.43383789 C-125.39162742 150.15056092 -118.73025101 146.0322939 -111.97021484 138.99633789 C-106.79546303 132.3236316 -105.44267681 126.30495597 -105.58740234 117.97290039 C-106.33497992 112.16010331 -109.31800129 108.606187 -113.40771484 104.62133789 C-116.88155928 102.41841215 -120.1924893 101.29821581 -124.24755859 100.60961914 C-130.50464272 99.50423475 -130.50464272 99.50423475 -133.03271484 96.74633789 C-134.14930274 93.47101339 -134.54233171 91.42903911 -133.97021484 87.99633789 C-132.34521484 85.12133789 -132.34521484 85.12133789 -128.97021484 82.99633789 C-118.11216208 80.95955653 -109.87768106 84.25470998 -100.97021484 89.99633789 C-93.64727659 95.27297178 -89.77342697 103.58670152 -86.97021484 111.99633789 C-86.14757757 129.19519624 -89.36184076 142.74110105 -100.97021484 155.99633789 C-108.74606764 162.96056969 -119.44483068 168.45192147 -129.97021484 168.99633789 C-130.95119141 169.05821289 -131.93216797 169.12008789 -132.94287109 169.18383789 C-150.89741129 169.83157778 -169.11892544 163.85324218 -182.47021484 151.62133789 C-191.30751544 143.09326954 -197.53001861 134.49092874 -201.97021484 122.99633789 C-202.38529297 121.9818457 -202.80037109 120.96735352 -203.22802734 119.92211914 C-205.48992091 113.23925178 -206.07788487 107.36774782 -205.89599609 100.35961914 C-205.88097046 99.6734552 -205.86594482 98.98729126 -205.85046387 98.28033447 C-205.76445407 94.77436757 -205.61806536 91.28507276 -205.38378906 87.78588867 C-204.86699769 80.81411627 -204.86699769 80.81411627 -207.79614258 74.82788086 C-210.12646915 73.23993983 -212.37290175 72.08464581 -214.97021484 70.99633789 C-215.98470703 70.46524414 -216.99919922 69.93415039 -218.04443359 69.38696289 C-236.86320378 61.17309011 -256.91186624 60.37504805 -276.18896484 67.82055664 C-295.01686523 75.78010441 -308.08602401 90.20691113 -315.97021484 108.99633789 C-321.40428364 122.550751 -321.55787965 143.46830732 -315.97021484 156.99633789 C-311.8262959 166.5099311 -311.8262959 166.5099311 -306.25537109 175.18774414 C-304.24204053 178.02109384 -304.36709925 180.43956826 -304.50537109 183.82446289 C-305.12567109 186.72267129 -306.57922527 188.15619661 -308.98974609 189.81665039 C-309.64330078 190.20594727 -310.29685547 190.59524414 -310.97021484 190.99633789 C-311.77845703 191.48875977 -312.58669922 191.98118164 -313.41943359 192.48852539 C-315.10371444 193.50060446 -316.79847052 194.49554848 -318.50537109 195.46899414 C-329.90815519 202.53474467 -336.07705024 213.48259454 -339.97021484 225.99633789 C-340.17259766 226.6318457 -340.37498047 227.26735352 -340.58349609 227.92211914 C-343.17270644 241.80970188 -339.88015018 256.62297412 -332.40380859 268.48071289 C-323.93606318 279.87582273 -312.90852127 287.76744301 -298.97021484 290.99633789 C-282.31518801 292.78784044 -268.19394003 290.01937715 -254.75146484 279.57055664 C-251.24339848 277.58495166 -248.94358287 277.58690418 -244.97021484 277.99633789 C-240.67507848 280.70414125 -237.99200482 284.16521165 -234.84521484 288.12133789 C-216.61582072 310.76352358 -188.96744104 325.15157847 -160.2265625 328.77368164 C-130.68915379 331.68843134 -98.90845021 323.8789106 -75.72021484 304.86816406 C-73.44059226 302.94370503 -71.19452592 300.98436684 -68.97021484 298.99633789 C-69.78305637 293.76367058 -71.82018087 289.01823765 -73.79833984 284.14282227 C-78.74505709 271.47292148 -79.40389317 253.38235396 -74.28662109 240.72290039 C-66.60588019 224.8144222 -56.14105593 213.10886863 -39.09521484 207.12133789 C-27.1105288 203.40843516 -14.36296834 203.67129222 -2.97021484 208.99633789 C7.05439845 214.41854623 12.88936164 221.85016743 16.46728516 232.62133789 C18.14245241 238.75880414 19.45417855 243.95331563 16.65478516 249.93383789 C15.02978516 251.99633789 15.02978516 251.99633789 13.02978516 252.99633789 C10.97119141 253.19946289 10.97119141 253.19946289 8.59228516 253.24633789 C7.80982422 253.27211914 7.02736328 253.29790039 6.22119141 253.32446289 C4.02978516 252.99633789 4.02978516 252.99633789 2.33447266 251.87524414 C0.51772614 249.25891158 0.17183652 246.80477597 -0.40771484 243.68383789 C-2.17720816 235.46572718 -5.28872284 230.90518916 -11.97021484 225.99633789 C-18.45159397 222.9176828 -25.18587482 223.01326848 -32.06787109 224.80102539 C-42.38282073 228.660813 -51.27162974 235.87480248 -55.97021484 245.99633789 C-60.24390416 256.68811187 -58.69402743 270.31348548 -54.97021484 280.99633789 C-48.09344903 296.73285225 -37.46631162 307.28322471 -21.67724609 313.99633789 C-4.68708068 320.27264719 13.60617546 317.04372241 29.71337891 309.71899414 C42.90019941 302.86930293 52.92579247 292.83012963 60.14306641 279.97680664 C62.15960355 276.79126246 64.13281784 274.41122127 67.02978516 271.99633789 C69.17041016 271.62133789 69.17041016 271.62133789 71.27978516 271.99633789 C72.06482422 272.12911133 72.84986328 272.26188477 73.65869141 272.39868164 C75.93331907 272.97202272 78.03058443 273.71591973 80.21728516 274.55883789 C89.16942275 277.7147398 98.90286226 276.88315584 107.56494141 273.25805664 C117.39470856 268.22633748 124.11756965 260.80134935 128.11181641 250.51196289 C130.46048014 241.5170805 130.55216418 230.86282193 126.51416016 222.34790039 C124.00024336 218.36532694 121.03872888 214.79878696 117.95556641 211.24633789 C115.71509956 208.62867278 115.08732623 207.62231502 114.77197266 204.19165039 C115.07211183 200.47174361 116.01856892 198.89533231 118.15478516 195.87133789 C129.12685612 179.45765278 133.24663264 164.15205415 129.96728516 144.49633789 C126.41961941 128.71985198 117.36973419 115.41385834 104.03369141 106.22680664 C90.28271406 97.78322406 73.88063284 92.88751244 57.76513672 96.50463867 C54.27142846 97.47800632 50.88141633 98.64150416 47.48291016 99.90258789 C43.95886534 101.01880118 41.67737379 101.59430324 38.02978516 100.99633789 C32.84116215 97.59482382 32.06277017 93.31725941 30.86474609 87.58178711 C30.65108398 86.50171387 30.43742187 85.42164063 30.21728516 84.30883789 C25.10218063 61.08974939 14.54506491 42.92257329 -1.97021484 25.99633789 C-2.56189453 25.3427832 -3.15357422 24.68922852 -3.76318359 24.01586914 C-20.67117927 5.77193307 -49.68002558 -5.86898053 -74.12841797 -7.11352539 C-83.57718671 -7.35276017 -92.76059313 -7.33571224 -101.97021484 -5.00366211 Z " fill="#4AB7FE" transform="translate(360.97021484375,95.003662109375)"/>
</svg>
